<svg xmlns="http://www.w3.org/2000/svg" version="1.1" xmlns:xlink="http://www.w3.org/1999/xlink" xmlns:svgjs="http://svgjs.dev/svgjs" width="2000" height="1247" viewBox="0 0 2000 1247"><g transform="matrix(1,0,0,1,-1.2121212121212466,0.504858299595071)"><svg viewBox="0 0 396 247" data-background-color="#ffffff" preserveAspectRatio="xMidYMid meet" height="1247" width="2000" xmlns="http://www.w3.org/2000/svg" xmlns:xlink="http://www.w3.org/1999/xlink"><g id="tight-bounds" transform="matrix(1,0,0,1,0.2400000000000091,-0.09999999999999432)"><svg viewBox="0 0 395.52 247.2" height="247.2" width="395.52"><g><svg></svg></g><g><svg viewBox="0 0 395.52 247.2" height="247.2" width="395.52"><g transform="matrix(1,0,0,1,115.43415999999999,47.215199999999996)"><svg viewBox="0 0 164.65168 152.7696" height="152.7696" width="164.65168"><g><svg viewBox="0 0 164.65168 152.7696" height="152.7696" width="164.65168"><g><svg viewBox="0 0 164.65168 152.7696" height="152.7696" width="164.65168"><g><svg viewBox="0 0 164.65168 152.7696" height="152.7696" width="164.65168"><g id="textblocktransform"><svg viewBox="0 0 164.65168 152.7696" height="152.7696" width="164.65168" id="textblock"><g><svg viewBox="0 0 164.65168 152.7696" height="152.7696" width="164.65168"><g transform="matrix(1,0,0,1,0,0)"><svg width="164.65168" viewBox="0.2 -35.5 38.8 36" height="152.7696" data-palette-color="#815fb4"><path d="M3.05 0.1L3.05 0.1Q2.65 0.1 1.83 0.05 1 0 0.2-0.1L0.2-0.1 8.95-34.3Q9.1-35.15 10.7-35.15L10.7-35.15Q11.3-35.15 11.88-35.1 12.45-35.05 12.85-34.95L12.85-34.95 21.6-0.8Q21.7-0.35 21.33-0.13 20.95 0.1 19.6 0.1L19.6 0.1Q19.15 0.1 18.48 0.08 17.8 0.05 16.9 0L16.9 0 12.55-19Q12.25-20.6 11.9-22.3 11.55-24 11.33-25.65 11.1-27.3 10.95-28.6L10.95-28.6Q10.85-27.3 10.58-25.65 10.3-24 10-22.3 9.7-20.6 9.35-19L9.35-19 5.2-0.8Q5.1-0.35 4.78-0.13 4.45 0.1 3.05 0.1ZM17.25-8.55L5.5-8.55 5.5-12.7 17.25-12.7 17.25-8.55ZM32.1 0.5L32.1 0.5Q29.5 0.5 27.7-0.25 25.9-1 24.77-2.85 23.65-4.7 23.17-8.05 22.7-11.4 22.7-16.55L22.7-16.55Q22.7-22.5 23.45-26.23 24.2-29.95 25.57-31.98 26.95-34 28.97-34.75 31-35.5 33.5-35.5L33.5-35.5Q36.05-35.5 37.47-34.7 38.9-33.9 38.9-32.8L38.9-32.8Q38.9-32.05 38.7-31.28 38.5-30.5 38.3-29.9L38.3-29.9Q37.65-30.4 36.62-30.7 35.6-31 34.45-31L34.45-31Q32.55-31 31.22-30.28 29.9-29.55 29.1-27.95 28.3-26.35 27.95-23.63 27.6-20.9 27.6-16.9L27.6-16.9Q27.6-12.7 27.87-10.13 28.15-7.55 28.72-6.23 29.3-4.9 30.2-4.45 31.1-4 32.2-4L32.2-4Q33-4 33.5-4.17 34-4.35 34.3-4.58 34.6-4.8 34.7-4.95L34.7-4.95 34.7-16.95 31.5-16.95 31.5-19.9Q31.5-20.75 32.5-20.75L32.5-20.75 39-20.75 38.95-1.5Q38.35-1.05 37.35-0.58 36.35-0.1 35.07 0.2 33.8 0.5 32.1 0.5Z" opacity="1" transform="matrix(1,0,0,1,0,0)" fill="#815fb4" class="wordmark-text-0" data-fill-palette-color="primary" id="text-0"></path></svg></g></svg></g></svg></g></svg></g></svg></g></svg></g></svg></g><g><path d="M0 123.6c0-68.262 55.338-123.6 123.6-123.6 30.402 0 58.24 10.976 79.768 29.183l-11.147 0c-19.26-14.022-42.974-22.294-68.621-22.295-64.458 0-116.712 52.254-116.712 116.712 0 64.458 52.254 116.712 116.712 116.712 25.647 0 49.361-8.272 68.621-22.295l11.147 0c-21.528 18.206-49.366 29.183-79.768 29.183-68.262 0-123.6-55.338-123.6-123.6z" fill="#815fb4" stroke="transparent" data-fill-palette-color="tertiary"></path></g></svg></g><defs></defs></svg><rect width="395.52" height="247.2" fill="none" stroke="none" visibility="hidden"></rect></g></svg></g></svg>